<?xml version="1.0" encoding="utf-8"?>
<!-- Generator: Adobe Illustrator 22.1.0, SVG Export Plug-In . SVG Version: 6.00 Build 0)  -->
<svg version="1.1" id="Layer_1" xmlns="http://www.w3.org/2000/svg" xmlns:xlink="http://www.w3.org/1999/xlink" x="0px" y="0px"
	 viewBox="0 0 65.4 54.9" style="enable-background:new 0 0 65.4 54.9;" xml:space="preserve">
<style type="text/css">
	.st0{fill:#333333;}
	.st1{fill:#2C2F33;}
</style>
<g>
	<path class="st0" d="M50.1,53.2l-0.2,0.7c0,0.1-0.1,0.8-0.1,0.9c0,0,2.5-0.1,2.5-0.1l12.5,0.2c0.4,0,0.5-1.2,0.7-1.6
		c0.2-0.4-0.2-1.6-0.4-2c-2.5-4.5-6.6-7.8-11.2-9.2l-0.3-3c2.2-0.4,6.2-1.4,8.3-4.5c0.3-0.4,0.3-0.9,0.2-1.4c-0.2-0.5-0.5-0.8-1-0.9
		c0,0-3.3-0.9-3.5-8.3c-0.1-3.1-0.4-5.9-1-8.3c-0.7-2.7-0.8-5.1-2.2-6.5c-1.5-1.5-4.3-1.8-6.3-1.6l-0.2,0c-0.9-0.7-2.7-1.8-5.3-1.5
		c-1.2,0.1-2.5,0.6-3.7,1.3l-0.1,0c-0.7,0.4-1.8,1-2.8,2.2c0,1.4,0.3,2.8,0.5,4.2c1-2.5,2.6-3.3,3.5-3.9l0.1,0c1-0.5,1.9-0.9,2.9-1
		c2.4-0.3,3.7,1.1,3.9,1.2c0.3,0.3,0.7,0.5,1.1,0.4c0.2,0,0.4-0.1,0.6-0.1c1.3-0.1,2.4,0.2,3.4,1.2c2,2,3.2,6.5,3.3,12.4
		c0.1,5.9,2.1,8.7,3.7,10c-1.8,1.4-4.4,2.1-6.4,2.4l-0.2,0c-0.3,0-0.6,0.2-0.9,0.5c-0.2,0.3-0.3,0.7-0.3,1l0.6,5.4
		c0.1,0.6,0.5,1.1,1,1.2c3.6,0.9,6.9,3.1,9.3,6.3l-10.6,1"/>
</g>
<g>
	<g>
		<path class="st1" d="M26.6,0h-2.1C18.7,0,14,4.7,14,10.4v9.9c0,1.7,0.7,3.3,2,4.4v8.1c-2.1,1.1-8.2,4.3-13.8,8.9
			C0.8,43,0,44.7,0,46.6v6.8c0,0.8,0.7,1.5,1.5,1.5h48c0.8,0,1.5-0.7,1.5-1.5v-6.8c0-1.9-0.8-3.7-2.3-4.9
			c-5.6-4.6-11.6-7.8-13.8-8.9v-8.1c1.3-1.1,2-2.7,2-4.4v-9.9C37,4.7,32.3,0,26.6,0z M33.1,35.3c1.2,0.6,7.8,3.9,13.8,8.8
			c0.8,0.6,1.2,1.6,1.2,2.5v5.3H3v-5.3c0-1,0.4-1.9,1.2-2.5c6-4.9,12.5-8.2,13.8-8.8c0.7-0.3,1.1-1,1.1-1.8V24c0-0.5-0.3-1-0.7-1.2
			c-0.8-0.5-1.3-1.5-1.3-2.5v-9.9c0-4.1,3.3-7.4,7.4-7.4h2.1c4.1,0,7.4,3.3,7.4,7.4v9.9c0,1-0.5,1.9-1.3,2.5C32.2,23,32,23.5,32,24
			v9.5C32,34.2,32.4,34.9,33.1,35.3z"/>
	</g>
</g>
</svg>
