<?xml version="1.0" encoding="utf-8"?>
<!-- Generator: Adobe Illustrator 22.1.0, SVG Export Plug-In . SVG Version: 6.00 Build 0)  -->
<svg version="1.1" id="Capa_1" xmlns="http://www.w3.org/2000/svg" xmlns:xlink="http://www.w3.org/1999/xlink" x="0px" y="0px"
	 viewBox="0 0 64 64" style="enable-background:new 0 0 64 64;" xml:space="preserve">
<g>
	<g>
		<path d="M56.5,5h-3V0h-5v5h-33V0h-5v5h-3C3.4,5,0,8.4,0,12.5v44C0,60.6,3.4,64,7.5,64h49c4.1,0,7.5-3.4,7.5-7.5v-44
			C64,8.4,60.6,5,56.5,5z M59,56.5c0,1.4-1.1,2.5-2.5,2.5h-49C6.1,59,5,57.9,5,56.5v-33h54V56.5z M59,18.5H5v-6
			C5,11.1,6.1,10,7.5,10h3v5h5v-5h33v5h5v-5h3c1.4,0,2.5,1.1,2.5,2.5V18.5z"/>
	</g>
</g>
<g>
	<g>
		<rect x="9.5" y="28.8" width="5" height="5"/>
	</g>
</g>
<g>
	<g>
		<rect x="19.5" y="28.8" width="5" height="5"/>
	</g>
</g>
<g>
	<g>
		<rect x="29.5" y="28.8" width="5" height="5"/>
	</g>
</g>
<g>
	<g>
		<rect x="39.5" y="28.8" width="5" height="5"/>
	</g>
</g>
<g>
	<g>
		<rect x="49.5" y="28.8" width="5" height="5"/>
	</g>
</g>
<g>
	<g>
		<rect x="9.5" y="38.8" width="5" height="5"/>
	</g>
</g>
<g>
	<g>
		<rect x="19.5" y="38.8" width="5" height="5"/>
	</g>
</g>
<g>
	<g>
		<rect x="29.5" y="38.8" width="5" height="5"/>
	</g>
</g>
<g>
	<g>
		<rect x="39.5" y="38.8" width="5" height="5"/>
	</g>
</g>
<g>
	<g>
		<rect x="9.5" y="48.8" width="5" height="5"/>
	</g>
</g>
<g>
	<g>
		<rect x="19.5" y="48.8" width="5" height="5"/>
	</g>
</g>
<g>
	<g>
		<rect x="29.5" y="48.8" width="5" height="5"/>
	</g>
</g>
<g>
	<g>
		<rect x="39.5" y="48.8" width="5" height="5"/>
	</g>
</g>
<g>
	<g>
		<rect x="49.5" y="38.8" width="5" height="5"/>
	</g>
</g>
</svg>
