<?xml version="1.0" encoding="utf-8"?>
<!-- Generator: Adobe Illustrator 22.1.0, SVG Export Plug-In . SVG Version: 6.00 Build 0)  -->
<svg version="1.1" id="Capa_1" xmlns="http://www.w3.org/2000/svg" xmlns:xlink="http://www.w3.org/1999/xlink" x="0px" y="0px"
	 viewBox="0 0 64 64" style="enable-background:new 0 0 64 64;" xml:space="preserve">
<g>
	<g>
		<path d="M61.4,19.5c-3.4-7.9-9.1-13.6-17-17C40.4,0.9,36.3,0,31.9,0c-4.3,0-8.5,0.9-12.4,2.6c-7.9,3.4-13.6,9.1-17,17
			C0.8,23.5,0,27.6,0,31.9c0,4.3,0.8,8.5,2.5,12.5c3.4,7.9,9.1,13.6,17,17c4,1.7,8.1,2.6,12.4,2.6s8.5-0.9,12.5-2.6
			c7.9-3.4,13.7-9.1,17-17c1.7-4,2.6-8.1,2.6-12.5C64,27.6,63.1,23.5,61.4,19.5z M56.3,46.1c-2.5,4.3-6,7.7-10.3,10.3
			c-4.3,2.5-9,3.8-14.1,3.8c-3.8,0-7.5-0.7-10.9-2.2c-3.5-1.5-6.5-3.5-9-6c-2.5-2.5-4.5-5.5-6-9c-1.5-3.5-2.2-7.1-2.2-11
			c0-5.1,1.2-9.8,3.7-14.1c2.5-4.3,5.9-7.7,10.3-10.3c4.3-2.5,9-3.8,14.1-3.8c5.1,0,9.8,1.3,14.1,3.8c4.3,2.5,7.8,5.9,10.3,10.3
			c2.5,4.3,3.8,9,3.8,14.1C60.1,37,58.9,41.7,56.3,46.1z"/>
		<path d="M34,31.7V13.5c0-1.1-0.9-2-2-2c-1,0-1.9,0.9-1.9,2v18.4c0,0,0.1,0.2,0.1,0.3c-0.1,0.6,0.1,1.2,0.5,1.6l10.5,10.5
			c0.7,0.7,2,0.7,2.7,0c0.8-0.8,0.8-2,0-2.7L34,31.7z"/>
	</g>
</g>
</svg>
