<?xml version="1.0" encoding="utf-8"?>
<!-- Generator: Adobe Illustrator 22.1.0, SVG Export Plug-In . SVG Version: 6.00 Build 0)  -->
<svg version="1.1" id="Capa_1" xmlns="http://www.w3.org/2000/svg" xmlns:xlink="http://www.w3.org/1999/xlink" x="0px" y="0px"
	 viewBox="0 0 64 73.9" style="enable-background:new 0 0 64 73.9;" xml:space="preserve">
<style type="text/css">
	.st0{fill:#FFFFFF;}
</style>
<g>
	<g>
		<path class="st0" d="M63.7,37.3c-2-14-13-25-27-27c2.2-2.5,2-6.4-0.5-8.7c-2.5-2.2-6.4-2-8.7,0.5c-2.1,2.3-2.1,5.8,0,8.1
			C9.9,12.8-2.2,29,0.3,46.5s18.8,29.6,36.3,27C54.1,71,66.2,54.8,63.7,37.3z M32,2.5c2,0,3.7,1.7,3.7,3.7S34,9.9,32,9.9
			s-3.7-1.7-3.7-3.7S30,2.5,32,2.5z M32,71.4c-16.3,0-29.5-13.2-29.5-29.5S15.7,12.3,32,12.3s29.5,13.2,29.5,29.5
			C61.5,58.2,48.3,71.4,32,71.4z"/>
	</g>
</g>
<g>
	<g>
		<path class="st0" d="M59,40.7c-0.7-14-11.8-25.2-25.8-25.8v0h-2.5v0C16.8,15.5,5.6,26.7,5,40.7h0v2.5h0
			c0.7,14,11.8,25.2,25.8,25.8v0h2.5v0c14-0.7,25.2-11.8,25.8-25.8h0L59,40.7L59,40.7z M56.6,43.1c-0.6,12.6-10.7,22.7-23.3,23.3
			v-4.9h-2.5v4.9C18.2,65.8,8.1,55.7,7.5,43.1h4.9v-2.5H7.5C8.1,28,18.2,18,30.8,17.3v4.9h2.5v-4.9C45.8,18,55.9,28,56.6,40.7h-4.9
			v2.5H56.6z"/>
	</g>
</g>
<g>
	<g>
		<path class="st0" d="M43.6,29.7c-0.3-0.2-0.8-0.2-1.1,0l0,0l-14.8,7.4c0,0-0.1,0-0.1,0.1c-0.2,0.1-0.3,0.2-0.4,0.4
			c0,0-0.1,0-0.1,0.1l-7.4,14.8c-0.3,0.6-0.1,1.3,0.5,1.7c0.3,0.2,0.8,0.2,1.1,0l14.8-7.4c0,0,0.1,0,0.1-0.1
			c0.2-0.1,0.3-0.2,0.4-0.4c0,0,0.1,0,0.1-0.1l7.4-14.8C44.5,30.7,44.2,30,43.6,29.7z M23.7,50.2l5-9.9l2.5,2.5l2.5,2.5L23.7,50.2z
			 M35.4,43.5L32.9,41l-2.5-2.5l9.9-5L35.4,43.5z"/>
	</g>
</g>
</svg>
