<?xml version="1.0" encoding="utf-8"?>
<!-- Generator: Adobe Illustrator 22.1.0, SVG Export Plug-In . SVG Version: 6.00 Build 0)  -->
<svg version="1.1" id="Layer_1" xmlns="http://www.w3.org/2000/svg" xmlns:xlink="http://www.w3.org/1999/xlink" x="0px" y="0px"
	 viewBox="0 0 427.9 202.8" style="enable-background:new 0 0 427.9 202.8;" xml:space="preserve">
<style type="text/css">
	.st0{fill:#FFFFFF;}
</style>
<g>
	<path class="st0" d="M382.5,0c-25.1,0-45.4,20.4-45.4,45.4c0,9.1,2.7,17.6,7.4,24.8l-49.1,49.1c-7.1-4.7-15.6-7.4-24.8-7.4
		c-9.5,0-18.3,2.9-25.6,7.9l-49.6-49.6c4.7-7.1,7.4-15.6,7.4-24.8c0-25.1-20.4-45.4-45.4-45.4s-45.4,20.4-45.4,45.4
		c0,9.1,2.7,17.6,7.4,24.8l-49.1,49.1c-7.1-4.7-15.6-7.4-24.8-7.4C20.4,111.9,0,132.3,0,157.4s20.4,45.4,45.4,45.4
		s45.4-20.4,45.4-45.4c0-9.1-2.7-17.6-7.4-24.8l49.1-49.1c7.1,4.7,15.6,7.4,24.8,7.4c9.1,0,17.6-2.7,24.8-7.4l49.9,49.9
		c-4.4,7-6.9,15.2-6.9,24c0,25.1,20.4,45.4,45.4,45.4s45.4-20.4,45.4-45.4c0-9.1-2.7-17.6-7.4-24.8l49.1-49.1
		c7.1,4.7,15.6,7.4,24.8,7.4c25.1,0,45.4-20.4,45.4-45.4S407.6,0,382.5,0z M45.4,184c-14.7,0-26.7-12-26.7-26.7
		c0-14.7,12-26.7,26.7-26.7c14.7,0,26.7,12,26.7,26.7C72.1,172.1,60.1,184,45.4,184z M130.7,45.4c0-14.7,12-26.7,26.7-26.7
		c14.7,0,26.7,12,26.7,26.7s-12,26.7-26.7,26.7C142.7,72.1,130.7,60.1,130.7,45.4z M270.6,184c-14.7,0-26.7-12-26.7-26.7
		c0-14.7,12-26.7,26.7-26.7c14.7,0,26.7,12,26.7,26.7C297.2,172.1,285.3,184,270.6,184z M382.5,72.1c-14.7,0-26.7-12-26.7-26.7
		c0-14.7,12-26.7,26.7-26.7c14.7,0,26.7,12,26.7,26.7C409.2,60.1,397.2,72.1,382.5,72.1z"/>
	<path class="st0" d="M134.5,115.4l-19.1,19.1c-3.7,3.7-3.7,9.6,0,13.3c1.8,1.8,4.2,2.8,6.6,2.8c2.4,0,4.8-0.9,6.6-2.8l19.1-19.1
		c3.7-3.7,3.7-9.6,0-13.3S138.1,111.7,134.5,115.4z"/>
	<path class="st0" d="M286.8,90.5c2.4,0,4.8-0.9,6.6-2.8l19.1-19.1c3.7-3.7,3.7-9.6,0-13.3c-3.7-3.7-9.6-3.7-13.3,0l-19.1,19.1
		c-3.7,3.7-3.7,9.6,0,13.3C282,89.6,284.4,90.5,286.8,90.5z"/>
</g>
</svg>
