<?xml version="1.0" encoding="utf-8"?>
<!-- Generator: Adobe Illustrator 22.1.0, SVG Export Plug-In . SVG Version: 6.00 Build 0)  -->
<svg version="1.1" id="Layer_1" xmlns="http://www.w3.org/2000/svg" xmlns:xlink="http://www.w3.org/1999/xlink" x="0px" y="0px"
	 viewBox="0 0 426 426" style="enable-background:new 0 0 426 426;" xml:space="preserve">
<style type="text/css">
	.st0{fill:#FFFFFF;}
</style>
<g>
	<path class="st0" d="M246.9,74.5c-23-23-53.6-35.7-86.2-35.7S97.6,51.5,74.5,74.5c-23,23-35.7,53.6-35.7,86.2
		c0,32.6,12.7,63.2,35.7,86.2c23,23,53.6,35.7,86.2,35.7s63.2-12.7,86.2-35.7c23-23,35.7-53.6,35.7-86.2
		C282.6,128.2,269.9,97.6,246.9,74.5L246.9,74.5z M235.4,235.4c-20,20-46.5,30.9-74.7,30.9c-28.2,0-54.7-11-74.7-30.9
		C44.8,194.2,44.8,127.2,86,86c20-20,46.5-30.9,74.7-30.9c28.2,0,54.7,11,74.7,30.9C276.6,127.2,276.6,194.2,235.4,235.4
		L235.4,235.4z M235.4,235.4"/>
	<path class="st0" d="M109,114.4c1.9,0,3.8-0.7,5.2-2.2c16-16,39-23.5,61.5-20c4,0.6,7.8-2.1,8.4-6.1c0.6-4-2.1-7.8-6.1-8.4
		c-27.1-4.2-54.8,4.8-74.1,24.2c-2.9,2.9-2.9,7.5,0,10.4C105.3,113.7,107.1,114.4,109,114.4L109,114.4z M109,114.4"/>
	<path class="st0" d="M415.8,366.4L314.1,264.7c-3.3-3.3-8.6-3.3-11.9,0l-4.1,4.1l-10-10c48.6-63,44-154.1-13.7-211.8
		C211.7-15.7,109.7-15.7,47,47c-62.7,62.7-62.7,164.7,0,227.4c31.3,31.3,72.5,47,113.7,47c34.7,0,69.3-11.1,98.1-33.3l10,10
		l-4.1,4.1c-1.6,1.6-2.5,3.7-2.5,5.9c0,2.2,0.9,4.4,2.5,5.9l101.7,101.7c6.8,6.8,15.7,10.2,24.7,10.2c8.9,0,17.9-3.4,24.7-10.2
		C429.4,402.2,429.4,380,415.8,366.4L415.8,366.4z M58.9,262.5c-27.2-27.2-42.2-63.4-42.2-101.8c0-38.5,15-74.6,42.2-101.8
		c27.2-27.2,63.4-42.2,101.8-42.2c38.5,0,74.6,15,101.8,42.2c27.2,27.2,42.2,63.4,42.2,101.8c0,38.5-15,74.6-42.2,101.8
		c-27.2,27.2-63.4,42.2-101.8,42.2S86.1,289.7,58.9,262.5L58.9,262.5z M271.6,277.2c0.9-0.9,1.9-1.8,2.8-2.7
		c0.9-0.9,1.8-1.9,2.7-2.8l9.1,9.1l-5.5,5.5L271.6,277.2z M403.9,403.9c-7.1,7-18.5,7-25.6,0l-95.8-95.8l25.6-25.6l95.8,95.8
		C410.9,385.4,410.9,396.8,403.9,403.9L403.9,403.9z M403.9,403.9"/>
</g>
</svg>
