<?xml version="1.0" encoding="utf-8"?>
<!-- Generator: Adobe Illustrator 22.1.0, SVG Export Plug-In . SVG Version: 6.00 Build 0)  -->
<svg version="1.1" id="Capa_1" xmlns="http://www.w3.org/2000/svg" xmlns:xlink="http://www.w3.org/1999/xlink" x="0px" y="0px"
	 viewBox="0 0 64 57.3" style="enable-background:new 0 0 64 57.3;" xml:space="preserve">
<g>
	<path d="M48.9,24.1C48.9,24.1,48.9,24.1,48.9,24.1c0-0.1,0-0.2,0-0.2c0,0,0,0,0,0c0-0.1,0-0.1-0.1-0.2c0,0,0,0,0,0
		c0,0,0-0.1-0.1-0.1c0,0,0,0,0,0c0,0,0,0,0,0c0,0,0-0.1-0.1-0.1c0,0,0,0,0,0c0,0-0.1-0.1-0.1-0.1c0,0,0,0,0,0c0,0-0.1-0.1-0.1-0.1
		c0,0,0,0,0,0c-0.1,0-0.1-0.1-0.2-0.1L26.9,10.9l12.3-7.7l20.6,11.7l-8.7,5.5c-0.7,0.4-0.9,1.3-0.5,2c0.4,0.7,1.3,0.9,2,0.5L63.3,16
		c0.4-0.3,0.7-0.7,0.7-1.3c0-0.5-0.3-1-0.7-1.2L39.8,0.2c-0.5-0.3-1-0.3-1.5,0L23.3,9.7c0,0,0,0,0,0l-7.5,4.7c0,0,0,0,0,0L0.7,23.9
		C0.2,24.2,0,24.7,0,25.2c0,0.5,0.3,1,0.7,1.2l23.4,13.3c0.2,0.1,0.5,0.2,0.7,0.2c0.3,0,0.5-0.1,0.8-0.2L36.4,33
		c0.7-0.4,0.9-1.3,0.5-2c-0.4-0.7-1.3-0.9-2-0.5l-10,6.3L4.3,25.1l12.3-7.7l22,12.5v16.5c0,0.5,0.3,1,0.7,1.3
		c0.2,0.1,0.5,0.2,0.7,0.2c0.3,0,0.5-0.1,0.8-0.2l7.5-4.7c0.4-0.3,0.7-0.7,0.7-1.2V24.3c0,0,0,0,0,0C48.9,24.2,48.9,24.1,48.9,24.1z
		 M41.4,43.8V29c0-0.5-0.3-1-0.7-1.3L19.3,15.6l4.8-3l20.6,11.7l-1.8,1.1c-0.7,0.4-0.9,1.3-0.5,2c0.3,0.4,0.7,0.7,1.2,0.7
		c0.3,0,0.5-0.1,0.8-0.2l1.6-1v14L41.4,43.8z"/>
	<path d="M61.8,19.3l-10.7,6.7c-0.7,0.4-0.9,1.3-0.5,2c0.3,0.4,0.7,0.7,1.2,0.7c0.3,0,0.5-0.1,0.8-0.2l10.7-6.7
		c0.7-0.4,0.9-1.3,0.5-2C63.4,19.1,62.5,18.9,61.8,19.3z"/>
	<path d="M34.8,36.3l-10,6.3L2.2,29.7c-0.7-0.4-1.6-0.2-2,0.5c-0.4,0.7-0.2,1.6,0.5,2l23.4,13.3c0.2,0.1,0.5,0.2,0.7,0.2
		c0.3,0,0.5-0.1,0.8-0.2l10.7-6.7c0.7-0.4,0.9-1.3,0.5-2C36.4,36.1,35.5,35.9,34.8,36.3z"/>
	<path d="M61.8,25.1l-10.7,6.7c-0.7,0.4-0.9,1.3-0.5,2c0.3,0.4,0.7,0.7,1.2,0.7c0.3,0,0.5-0.1,0.8-0.2l10.7-6.7
		c0.7-0.4,0.9-1.3,0.5-2C63.4,24.9,62.5,24.7,61.8,25.1z"/>
	<path d="M34.8,42.1l-10,6.3L2.2,35.5c-0.7-0.4-1.6-0.2-2,0.5c-0.4,0.7-0.2,1.6,0.5,2l23.4,13.3c0.2,0.1,0.5,0.2,0.7,0.2
		c0.3,0,0.5-0.1,0.8-0.2l10.7-6.7c0.7-0.4,0.9-1.3,0.5-2C36.4,41.9,35.5,41.7,34.8,42.1z"/>
	<path d="M61.8,30.9l-10.7,6.7c-0.7,0.4-0.9,1.3-0.5,2c0.3,0.4,0.7,0.7,1.2,0.7c0.3,0,0.5-0.1,0.8-0.2l10.7-6.7
		c0.7-0.4,0.9-1.3,0.5-2C63.4,30.7,62.5,30.5,61.8,30.9z"/>
	<path d="M34.8,47.9l-10,6.3L2.2,41.3c-0.7-0.4-1.6-0.2-2,0.5c-0.4,0.7-0.2,1.6,0.5,2l23.4,13.3c0.2,0.1,0.5,0.2,0.7,0.2
		c0.3,0,0.5-0.1,0.8-0.2l10.7-6.7c0.7-0.4,0.9-1.3,0.5-2C36.4,47.7,35.5,47.5,34.8,47.9z"/>
</g>
</svg>
