<?xml version="1.0" encoding="utf-8"?>
<!-- Generator: Adobe Illustrator 22.1.0, SVG Export Plug-In . SVG Version: 6.00 Build 0)  -->
<svg version="1.1" id="Layer_1" xmlns="http://www.w3.org/2000/svg" xmlns:xlink="http://www.w3.org/1999/xlink" x="0px" y="0px"
	 viewBox="0 0 64 57.1" style="enable-background:new 0 0 64 57.1;" xml:space="preserve">
<style type="text/css">
	.st0{fill:#D80027;}
</style>
<g>
	<g>
		<path class="st0" d="M63.3,22.5L33,0.3c-0.6-0.4-1.4-0.4-2,0L0.7,22.5c-0.7,0.5-0.9,1.6-0.4,2.3c0.5,0.7,1.6,0.9,2.3,0.4L32,3.7
			l29.4,21.5c0.3,0.2,0.6,0.3,1,0.3c0.5,0,1-0.2,1.3-0.7C64.2,24.1,64.1,23.1,63.3,22.5z"/>
	</g>
</g>
<g>
	<g>
		<path class="st0" d="M55.3,25.6c-0.9,0-1.7,0.7-1.7,1.7v26.5H40.3V39.3c0-4.6-3.7-8.3-8.3-8.3s-8.3,3.7-8.3,8.3v14.4H10.4V27.3
			c0-0.9-0.7-1.7-1.7-1.7s-1.7,0.7-1.7,1.7v28.1c0,0.9,0.7,1.7,1.7,1.7h16.6c0.9,0,1.6-0.7,1.7-1.5c0,0,0-0.1,0-0.1V39.3
			c0-2.8,2.2-5,5-5c2.8,0,5,2.2,5,5v16.1c0,0,0,0.1,0,0.1c0.1,0.9,0.8,1.5,1.7,1.5h16.6c0.9,0,1.7-0.7,1.7-1.7V27.3
			C56.9,26.3,56.2,25.6,55.3,25.6z"/>
	</g>
</g>
</svg>
