<?xml version="1.0" encoding="utf-8"?>
<!-- Generator: Adobe Illustrator 22.1.0, SVG Export Plug-In . SVG Version: 6.00 Build 0)  -->
<svg version="1.1" id="Layer_1" xmlns="http://www.w3.org/2000/svg" xmlns:xlink="http://www.w3.org/1999/xlink" x="0px" y="0px"
	 viewBox="0 0 380.9 332.7" style="enable-background:new 0 0 380.9 332.7;" xml:space="preserve">
<style type="text/css">
	.st0{fill:#FFFFFF;}
</style>
<g>
	<path class="st0" d="M379.1,106.8l-55.2-39V10.9c-0.6-5.6-4.9-10.2-10.5-10.9H71.8c-5.6,0.8-10,5.3-10.5,10.9v56.5L3.9,106.8
		c-2.3,1.6-3.7,4.2-3.9,7v208c0.7,5.7,5.2,10.2,10.9,10.9h363.4c4.8,0,6.6-5.7,6.6-10.9v-208C380.9,111.2,381.3,108.6,379.1,106.8z
		 M361.6,114.7L324,143.2V88.9L361.6,114.7z M306.5,17.5v139.2l-113.8,85.8L78.8,156.7V17.5H306.5z M61.3,88.4v55.2l-37.7-28.9
		L61.3,88.4z M17.5,132.7l122.6,92.8L17.5,308.2V132.7z M38.5,315.2L155,236.9l31.1,23.6c1.8,1.4,3.9,2.1,6.1,2.2
		c1.8,0,2.6-0.9,4.4-2.2l32.4-25l117.8,79.7H38.5z M363.4,305.1l-120-80.6l120-91.9V305.1z"/>
	<g>
		<path class="st0" d="M162,74.4h-39.4c-4.8,0-8.8-3.9-8.8-8.8c0-4.8,3.9-8.8,8.8-8.8H162c4.8,0,8.8,3.9,8.8,8.8
			C170.7,70.5,166.8,74.4,162,74.4z"/>
		<path class="st0" d="M262.7,113.8H122.6c-4.8,0-8.8-3.9-8.8-8.8s3.9-8.8,8.8-8.8h140.1c4.8,0,8.8,3.9,8.8,8.8
			S267.5,113.8,262.7,113.8z"/>
		<path class="st0" d="M262.7,153.2H122.6c-4.8,0-8.8-3.9-8.8-8.8c0-4.8,3.9-8.8,8.8-8.8h140.1c4.8,0,8.8,3.9,8.8,8.8
			C271.4,149.3,267.5,153.2,262.7,153.2z"/>
	</g>
</g>
</svg>
