<?xml version="1.0" encoding="utf-8"?>
<!-- Generator: Adobe Illustrator 22.1.0, SVG Export Plug-In . SVG Version: 6.00 Build 0)  -->
<svg version="1.1" id="Capa_1" xmlns="http://www.w3.org/2000/svg" xmlns:xlink="http://www.w3.org/1999/xlink" x="0px" y="0px"
	 viewBox="0 0 64 52" style="enable-background:new 0 0 64 52;" xml:space="preserve">
<style type="text/css">
	.st0{fill:#FFFFFF;}
</style>
<g>
	<path class="st0" d="M52,0c-5.5,0-10,4.5-10,10c0,1.5,0.3,2.9,0.9,4.2L52,32l9.1-17.8c0.6-1.3,0.9-2.7,0.9-4.2C62,4.5,57.5,0,52,0z
		 M52,16c-3.3,0-6-2.7-6-6s2.7-6,6-6s6,2.7,6,6S55.3,16,52,16z M55,34.9l3.6,7.3l-9.2,4.6l-3.1-15.5l0.5-0.5l0.1-0.1L45,27l-1,1
		l-12-8l-12,8l-8-8L0,44l16,8l16-8l16,8l16-8l-6.8-13.5L55,34.9z M14.6,46.8l-9.2-4.6l7.7-15.5l4.1,4.1l0.5,0.5L14.6,46.8z M30,40.5
		l-11.2,5.6l2.9-14.4l0.5-0.3l7.8-5.2V40.5z M34,40.5V26.1l7.8,5.2l0.5,0.3l2.9,14.4L34,40.5z"/>
</g>
</svg>
