<?xml version="1.0" encoding="utf-8"?>
<!-- Generator: Adobe Illustrator 22.1.0, SVG Export Plug-In . SVG Version: 6.00 Build 0)  -->
<svg version="1.1" id="Capa_1" xmlns="http://www.w3.org/2000/svg" xmlns:xlink="http://www.w3.org/1999/xlink" x="0px" y="0px"
	 viewBox="0 0 64 50.1" style="enable-background:new 0 0 64 50.1;" xml:space="preserve">
<style type="text/css">
	.st0{fill:#333333;}
</style>
<g>
	<path class="st0" d="M54,28.3l9.9,20.2c0.4,0.8,0,1.5-0.9,1.5H1.1c-0.9,0-1.3-0.7-0.9-1.5L10,28.3c0.2-0.3,0.6-0.6,0.9-0.6h8.4
		c0.3,0,0.6,0.2,0.8,0.4c0.6,0.7,1.2,1.3,1.7,2c0.6,0.6,1.1,1.2,1.7,1.9h-10c-0.4,0-0.8,0.3-0.9,0.6L6.1,45.9h51.8l-6.5-13.4
		c-0.2-0.3-0.6-0.6-0.9-0.6H40.4c0.6-0.6,1.1-1.2,1.7-1.9c0.6-0.6,1.2-1.3,1.7-2c0.2-0.2,0.5-0.4,0.8-0.4h8.5
		C53.4,27.7,53.8,28,54,28.3z M46.5,14.5c0,11.1-9.2,13.1-13.5,23.8c-0.4,0.9-1.6,0.9-1.9,0C27.1,28.7,19.2,26,17.7,17.5
		C16.3,9.1,22.1,0.9,30.6,0.1C39.2-0.8,46.5,6,46.5,14.5z M39.6,14.5c0-4.2-3.4-7.7-7.7-7.7s-7.7,3.4-7.7,7.7c0,4.2,3.4,7.7,7.7,7.7
		S39.6,18.7,39.6,14.5z"/>
</g>
</svg>
