<?xml version="1.0" encoding="utf-8"?>
<!-- Generator: Adobe Illustrator 22.1.0, SVG Export Plug-In . SVG Version: 6.00 Build 0)  -->
<svg version="1.1" id="Capa_1" xmlns="http://www.w3.org/2000/svg" xmlns:xlink="http://www.w3.org/1999/xlink" x="0px" y="0px"
	 viewBox="0 0 64 66.3" style="enable-background:new 0 0 64 66.3;" xml:space="preserve">
<style type="text/css">
	.st0{fill:#000D66;}
</style>
<path class="st0" d="M63,60.4L47.2,44c4.1-4.8,6.3-10.9,6.3-17.2C53.5,12,41.5,0,26.8,0S0,12,0,26.8s12,26.8,26.8,26.8
	c5.5,0,10.8-1.7,15.3-4.8L58,65.2c0.7,0.7,1.6,1.1,2.5,1.1s1.8-0.3,2.4-1C64.3,64,64.4,61.8,63,60.4z M26.8,7
	c10.9,0,19.8,8.9,19.8,19.8s-8.9,19.8-19.8,19.8S7,37.7,7,26.8S15.9,7,26.8,7z"/>
</svg>
