<?xml version="1.0" encoding="utf-8"?>
<!-- Generator: Adobe Illustrator 22.1.0, SVG Export Plug-In . SVG Version: 6.00 Build 0)  -->
<svg version="1.1" id="Layer_1" xmlns="http://www.w3.org/2000/svg" xmlns:xlink="http://www.w3.org/1999/xlink" x="0px" y="0px"
	 viewBox="0 0 64 29" style="enable-background:new 0 0 64 29;" xml:space="preserve">
<style type="text/css">
	.st0{fill:#FFFFFF;}
</style>
<g>
	<g>
		<path class="st0" d="M62.7,0H21.4c-0.7,0-1.3,0.6-1.3,1.3v2.4H8C7.3,3.7,6.7,4.3,6.7,5c0,0.7,0.6,1.3,1.3,1.3h12.2v16.6h-7.3
			c-0.7,0-1.3,0.6-1.3,1.3s0.6,1.3,1.3,1.3h7.3v2.4c0,0.7,0.6,1.3,1.3,1.3h41.3c0.7,0,1.3-0.6,1.3-1.3V1.3C64,0.6,63.4,0,62.7,0z
			 M59.6,2.5L42.1,16.9L24.6,2.5H59.6z M61.5,26.5H22.7V4.2l18.6,15.3c0.2,0.2,0.5,0.3,0.8,0.3c0.3,0,0.6-0.1,0.8-0.3L61.5,4.3V26.5
			z"/>
	</g>
</g>
<g>
	<g>
		<path class="st0" d="M15,13.1H1.3c-0.7,0-1.3,0.6-1.3,1.3c0,0.7,0.6,1.3,1.3,1.3H15c0.7,0,1.3-0.6,1.3-1.3
			C16.2,13.7,15.7,13.1,15,13.1z"/>
	</g>
</g>
<g>
	<g>
		<path class="st0" d="M8.7,22.8H8c-0.7,0-1.3,0.6-1.3,1.3s0.6,1.3,1.3,1.3h0.7c0.7,0,1.3-0.6,1.3-1.3S9.4,22.8,8.7,22.8z"/>
	</g>
</g>
</svg>
