<?xml version="1.0" encoding="utf-8"?>
<!-- Generator: Adobe Illustrator 21.0.0, SVG Export Plug-In . SVG Version: 6.00 Build 0)  -->
<svg version="1.1" id="Layer_1" xmlns="http://www.w3.org/2000/svg" xmlns:xlink="http://www.w3.org/1999/xlink" x="0px" y="0px"
	 viewBox="0 0 209 209" style="enable-background:new 0 0 209 209;" xml:space="preserve">
<style type="text/css">
	.st0{fill:#FFFFFF;}
	.st1{fill:#B90C2F;}
</style>
<g>
	<circle class="st0" cx="104.5" cy="104.5" r="104.5"/>
	<path class="st1" d="M144.1,59.2H64.8c-15.6,0-28.2,12.6-28.2,28.2V127c0,15.6,12.6,28.2,28.2,28.2h79.3
		c15.6,0,28.2-12.6,28.2-28.2V87.4C172.3,71.8,159.7,59.2,144.1,59.2L144.1,59.2z M125.1,109.1L88,126.8c-1,0.5-2.1-0.2-2.1-1.3V89
		c0-1.1,1.2-1.8,2.2-1.3l37.1,18.8C126.2,107,126.2,108.6,125.1,109.1L125.1,109.1z M125.1,109.1"/>
</g>
</svg>
