<?xml version="1.0" encoding="utf-8"?>
<!-- Generator: Adobe Illustrator 22.1.0, SVG Export Plug-In . SVG Version: 6.00 Build 0)  -->
<svg version="1.1" id="Capa_1" xmlns="http://www.w3.org/2000/svg" xmlns:xlink="http://www.w3.org/1999/xlink" x="0px" y="0px"
	 viewBox="0 0 64 77.4" style="enable-background:new 0 0 64 77.4;" xml:space="preserve">
<style type="text/css">
	.st0{fill:#FFFFFF;}
</style>
<g>
	<g>
		<path class="st0" d="M62.9,40c-0.4-1.7-1.2-3.1-2.5-4.3c-1.3-1.2-2.8-1.8-4.4-2c-5.3-0.6-13.3-0.9-24-0.9
			c-10.7,0-18.7,0.3-23.9,0.9c-1.7,0.2-3.2,0.9-4.4,2c-1.3,1.2-2.1,2.6-2.5,4.3C0.4,43.3,0,48.4,0,55.1C0,62,0.4,67,1.1,70.2
			c0.4,1.7,1.2,3.1,2.5,4.3c1.3,1.2,2.8,1.8,4.4,2c5.3,0.6,13.3,0.9,24,0.9c10.7,0,18.7-0.3,24-0.9c1.7-0.2,3.1-0.8,4.4-2
			c1.3-1.2,2.1-2.6,2.5-4.3c0.7-3.3,1.1-8.4,1.1-15.1C64,48.3,63.6,43.2,62.9,40z M18.3,44.4h-4.6v24.6H9.3V44.4H4.8v-4.1h13.5
			L18.3,44.4L18.3,44.4z M29.9,68.9h-3.8v-2.3c-1.6,1.8-3,2.6-4.4,2.6c-1.3,0-2.2-0.5-2.5-1.6c-0.2-0.7-0.3-1.7-0.3-3.2V47.6h3.8
			v15.7c0,0.9,0,1.4,0,1.5c0.1,0.6,0.4,0.9,0.9,0.9c0.8,0,1.6-0.6,2.5-1.8V47.6h3.8L29.9,68.9L29.9,68.9z M44.6,62.5
			c0,2.1-0.1,3.5-0.4,4.3c-0.5,1.6-1.5,2.4-3.1,2.4c-1.4,0-2.7-0.8-4-2.4v2.1h-3.8V40.3h3.8v9.4c1.2-1.6,2.6-2.3,4-2.3
			c1.6,0,2.6,0.8,3.1,2.4c0.3,0.7,0.4,2.2,0.4,4.3V62.5z M59.2,59h-7.7v3.8c0,2,0.7,3,2,3c0.9,0,1.5-0.5,1.7-1.6
			c0.1-0.3,0.1-1.2,0.1-2.6h3.9v0.6c0,1.4,0,2.2-0.1,2.5c-0.1,0.8-0.4,1.6-0.9,2.3c-1,1.5-2.6,2.3-4.7,2.3c-2,0-3.5-0.7-4.7-2.2
			c-0.8-1.1-1.3-2.7-1.3-5v-7.5c0-2.3,0.4-3.9,1.2-5c1.1-1.5,2.7-2.2,4.6-2.2c1.9,0,3.5,0.7,4.6,2.2c0.8,1.1,1.2,2.7,1.2,5L59.2,59
			L59.2,59z"/>
		<path class="st0" d="M39.1,50.8c-0.7,0-1.3,0.3-1.9,1v13c0.6,0.6,1.3,0.9,1.9,0.9c1.1,0,1.7-1,1.7-2.9v-9.1
			C40.8,51.8,40.2,50.8,39.1,50.8z"/>
		<path class="st0" d="M53.4,50.8c-1.3,0-1.9,1-1.9,2.9v2h3.9v-2C55.4,51.8,54.7,50.8,53.4,50.8z"/>
		<path class="st0" d="M15.8,17.2v11.7h4.3V17.2L25.3,0h-4.4L18,11.4L14.9,0h-4.6c0.8,2.4,1.7,5.1,2.8,8.1
			C14.5,12,15.4,15.1,15.8,17.2z"/>
		<path class="st0" d="M31.1,29.2c2,0,3.5-0.7,4.6-2.2c0.8-1.1,1.2-2.8,1.2-5.1v-7.6c0-2.3-0.4-4-1.2-5.1c-1.1-1.5-2.6-2.2-4.6-2.2
			c-1.9,0-3.4,0.7-4.5,2.2c-0.8,1.1-1.2,2.7-1.2,5.1v7.6c0,2.3,0.4,4,1.2,5.1C27.7,28.5,29.2,29.2,31.1,29.2z M29.2,13.6
			c0-2,0.6-3,1.9-3c1.2,0,1.9,1,1.9,3v9.1c0,2-0.6,3-1.9,3c-1.2,0-1.9-1-1.9-3V13.6z"/>
		<path class="st0" d="M43,29.2c1.4,0,2.9-0.9,4.4-2.7v2.4h3.9V7.4h-3.9v16.5c-0.9,1.2-1.7,1.9-2.5,1.9c-0.5,0-0.8-0.3-0.9-0.9
			c0-0.1,0-0.6,0-1.5V7.4h-3.9v17c0,1.5,0.1,2.5,0.3,3.2C40.8,28.7,41.6,29.2,43,29.2z"/>
	</g>
</g>
</svg>
